<?xml version="1.0" encoding="UTF-8" standalone="no"?>
<svg
   version="1.1"
   viewBox="0 0 796.09448 517.49341"
   fill="none"
   stroke="none"
   stroke-linecap="square"
   stroke-miterlimit="10"
   id="svg237"
   sodipodi:docname="tt04.svg"
   width="796.09448"
   height="517.49341"
   inkscape:version="1.2 (dc2aedaf03, 2022-05-15)"
   xmlns:inkscape="http://www.inkscape.org/namespaces/inkscape"
   xmlns:sodipodi="http://sodipodi.sourceforge.net/DTD/sodipodi-0.dtd"
   xmlns="http://www.w3.org/2000/svg"
   xmlns:svg="http://www.w3.org/2000/svg">
  <defs
     id="defs241" />
  <sodipodi:namedview
     id="namedview239"
     pagecolor="#ffffff"
     bordercolor="#000000"
     borderopacity="0.25"
     inkscape:showpageshadow="2"
     inkscape:pageopacity="0.0"
     inkscape:pagecheckerboard="0"
     inkscape:deskcolor="#d1d1d1"
     showgrid="false"
     inkscape:zoom="1.349537"
     inkscape:cx="639.47856"
     inkscape:cy="337.15266"
     inkscape:window-width="2560"
     inkscape:window-height="1369"
     inkscape:window-x="-8"
     inkscape:window-y="-8"
     inkscape:window-maximized="1"
     inkscape:current-layer="svg237" />
  <path
     fill="#cfe2f3"
     d="m 227.93963,177.21391 h 192 v 339.77948 h -192 z"
     fill-rule="evenodd"
     id="path131" />
  <path
     stroke="#000000"
     stroke-width="1"
     stroke-linejoin="round"
     stroke-linecap="butt"
     d="m 227.93963,177.21391 h 192 v 339.77948 h -192 z"
     fill-rule="evenodd"
     id="path133" />
  <path
     fill="#000000"
     d="m 292.53085,204.13391 v -11.09375 h -3.95313 v -2.26563 h 10.60938 v 2.26563 h -3.95313 v 11.09375 z m 9.80353,0 h -2.5625 v -9.67188 h 2.375 v 1.375 q 0.60937,-0.98437 1.09375,-1.28125 0.48437,-0.3125 1.10937,-0.3125 0.875,0 1.6875,0.48438 l -0.79687,2.23437 q -0.64063,-0.42187 -1.20313,-0.42187 -0.53125,0 -0.90625,0.29687 -0.375,0.29688 -0.59375,1.07813 -0.20312,0.76562 -0.20312,3.23437 z m 4.80716,-10.98438 v -2.375 h 2.5625 v 2.375 z m 0,10.98438 v -9.67188 h 2.5625 v 9.67188 z m 7.08954,-6.71875 -2.32813,-0.42188 q 0.40625,-1.40625 1.35938,-2.07812 0.95312,-0.67188 2.84375,-0.67188 1.70312,0 2.54687,0.40625 0.84375,0.40625 1.17188,1.03125 0.34375,0.625 0.34375,2.28125 l -0.0156,3 q 0,1.26563 0.10938,1.875 0.125,0.60938 0.46875,1.29688 h -2.53125 q -0.10938,-0.25 -0.25,-0.75 -0.0625,-0.23438 -0.0937,-0.3125 -0.65625,0.64062 -1.40625,0.96875 -0.73438,0.3125 -1.59375,0.3125 -1.48438,0 -2.34375,-0.8125 -0.85938,-0.8125 -0.85938,-2.04688 0,-0.82812 0.39063,-1.46875 0.39062,-0.64062 1.09375,-0.96875 0.70312,-0.34375 2.03125,-0.60937 1.79687,-0.32813 2.48437,-0.625 v -0.25 q 0,-0.75 -0.35937,-1.0625 -0.35938,-0.3125 -1.375,-0.3125 -0.6875,0 -1.07813,0.28125 -0.375,0.26562 -0.60937,0.9375 z m 3.42187,2.07812 q -0.48437,0.15625 -1.5625,0.39063 -1.0625,0.21875 -1.39062,0.4375 -0.5,0.35937 -0.5,0.90625 0,0.53125 0.40625,0.9375 0.40625,0.39062 1.01562,0.39062 0.70313,0 1.32813,-0.46875 0.46875,-0.34375 0.60937,-0.84375 0.0937,-0.32812 0.0937,-1.25 z m 13.84448,4.64063 h -2.5625 v -4.9375 q 0,-1.5625 -0.17187,-2.01563 -0.15625,-0.46875 -0.53125,-0.71875 -0.35938,-0.26562 -0.875,-0.26562 -0.67188,0 -1.20313,0.375 -0.53125,0.35937 -0.73437,0.96875 -0.1875,0.59375 -0.1875,2.21875 v 4.375 h -2.54688 v -9.67188 h 2.375 v 1.42188 q 1.26563,-1.64063 3.1875,-1.64063 0.84375,0 1.54688,0.3125 0.70312,0.29688 1.0625,0.78125 0.35937,0.46875 0.5,1.07813 0.14062,0.59375 0.14062,1.70312 z m 2.36472,0.64062 2.92187,0.35938 q 0.0625,0.5 0.32813,0.6875 0.375,0.28125 1.15625,0.28125 1,0 1.5,-0.29688 0.32812,-0.20312 0.51562,-0.65625 0.10938,-0.3125 0.10938,-1.17187 v -1.40625 q -1.14063,1.5625 -2.89063,1.5625 -1.95312,0 -3.09375,-1.65625 -0.89062,-1.29688 -0.89062,-3.23438 0,-2.4375 1.17187,-3.71875 1.17188,-1.28125 2.90625,-1.28125 1.79688,0 2.96875,1.57813 v -1.35938 h 2.39063 v 8.67188 q 0,1.71875 -0.28125,2.5625 -0.28125,0.84375 -0.79688,1.32812 -0.5,0.48438 -1.35937,0.75 -0.84375,0.28125 -2.15625,0.28125 -2.45313,0 -3.48438,-0.84375 -1.03125,-0.84375 -1.03125,-2.125 0,-0.14062 0.0156,-0.3125 z m 2.28125,-5.67187 q 0,1.53125 0.59375,2.25 0.59375,0.71875 1.46875,0.71875 0.9375,0 1.57812,-0.73438 0.65625,-0.73437 0.65625,-2.17187 0,-1.51563 -0.625,-2.23438 -0.60937,-0.73437 -1.5625,-0.73437 -0.92187,0 -1.51562,0.71875 -0.59375,0.71875 -0.59375,2.1875 z m 9.34912,5.03125 v -13.35938 h 2.5625 v 13.35938 z m 10.77704,-3.07813 2.54687,0.42188 q -0.48437,1.40625 -1.54687,2.14062 -1.0625,0.73438 -2.65625,0.73438 -2.51563,0 -3.73438,-1.65625 -0.95312,-1.3125 -0.95312,-3.32813 0,-2.40625 1.25,-3.76562 1.26562,-1.35938 3.1875,-1.35938 2.15625,0 3.40625,1.42188 1.25,1.42187 1.1875,4.375 h -6.40625 q 0.0312,1.14062 0.60937,1.78125 0.59375,0.625 1.48438,0.625 0.59375,0 1,-0.32813 0.42187,-0.32812 0.625,-1.0625 z m 0.15625,-2.59375 q -0.0312,-1.10937 -0.57813,-1.6875 -0.54687,-0.57812 -1.32812,-0.57812 -0.84375,0 -1.39063,0.60937 -0.54687,0.60938 -0.53125,1.65625 z"
     fill-rule="nonzero"
     id="path135" />
  <path
     fill="#cfe2f3"
     d="m 83.43307,157.03543 h 192 v 339.7795 h -192 z"
     fill-rule="evenodd"
     id="path137" />
  <path
     stroke="#000000"
     stroke-width="1"
     stroke-linejoin="round"
     stroke-linecap="butt"
     d="m 83.43307,157.03543 h 192 v 339.7795 h -192 z"
     fill-rule="evenodd"
     id="path139" />
  <path
     fill="#000000"
     d="m 136.21057,183.95543 v -13.35938 h 5.6875 q 2.14062,0 3.10937,0.35938 0.96875,0.35937 1.54688,1.28125 0.57812,0.92187 0.57812,2.10937 0,1.5 -0.89062,2.48438 -0.875,0.96875 -2.625,1.23437 0.875,0.5 1.4375,1.125 0.57812,0.60938 1.53125,2.15625 l 1.64062,2.60938 h -3.23437 l -1.9375,-2.90625 q -1.04688,-1.5625 -1.4375,-1.96875 -0.375,-0.40625 -0.8125,-0.54688 -0.42188,-0.15625 -1.34375,-0.15625 h -0.54688 v 5.57813 z m 2.70312,-7.70313 h 2 q 1.9375,0 2.42188,-0.15625 0.48437,-0.17187 0.75,-0.57812 0.28125,-0.40625 0.28125,-1 0,-0.67188 -0.35938,-1.07813 -0.35937,-0.42187 -1.01562,-0.53125 -0.32813,-0.0469 -1.96875,-0.0469 h -2.10938 z m 16.34795,4.625 2.54688,0.42188 q -0.48438,1.40625 -1.54688,2.14062 -1.0625,0.73438 -2.65625,0.73438 -2.51562,0 -3.73437,-1.65625 -0.95313,-1.3125 -0.95313,-3.32813 0,-2.40625 1.25,-3.76562 1.26563,-1.35938 3.1875,-1.35938 2.15625,0 3.40625,1.42188 1.25,1.42187 1.1875,4.375 h -6.40625 q 0.0312,1.14062 0.60938,1.78125 0.59375,0.625 1.48437,0.625 0.59375,0 1,-0.32813 0.42188,-0.32812 0.625,-1.0625 z m 0.15625,-2.59375 q -0.0312,-1.10937 -0.57812,-1.6875 -0.54688,-0.57812 -1.32813,-0.57812 -0.84375,0 -1.39062,0.60937 -0.54688,0.60938 -0.53125,1.65625 z m 13.06322,-1.14062 -2.53125,0.45312 q -0.125,-0.75 -0.57813,-1.125 -0.45312,-0.39062 -1.17187,-0.39062 -0.95313,0 -1.53125,0.65625 -0.5625,0.65625 -0.5625,2.20312 0,1.73438 0.57812,2.4375 0.57813,0.70313 1.54688,0.70313 0.73437,0 1.20312,-0.40625 0.46875,-0.42188 0.65625,-1.42188 l 2.51563,0.42188 q -0.39063,1.73437 -1.51563,2.625 -1.10937,0.875 -2.96875,0.875 -2.125,0 -3.39062,-1.32813 -1.25,-1.34375 -1.25,-3.71875 0,-2.39062 1.26562,-3.71875 1.26563,-1.34375 3.42188,-1.34375 1.76562,0 2.79687,0.76563 1.04688,0.75 1.51563,2.3125 z m 6.37572,-2.85938 v 2.03125 h -1.75 v 3.90625 q 0,1.1875 0.0469,1.39063 0.0469,0.1875 0.21875,0.3125 0.1875,0.125 0.4375,0.125 0.35938,0 1.03125,-0.25 l 0.21875,2 q -0.89062,0.375 -2.01562,0.375 -0.70313,0 -1.26563,-0.23438 -0.54687,-0.23437 -0.8125,-0.59375 -0.25,-0.375 -0.34375,-1 -0.0937,-0.45312 -0.0937,-1.8125 v -4.21875 h -1.17187 v -2.03125 h 1.17187 v -1.92187 l 2.57813,-1.5 v 3.42187 z m 3.68142,2.95313 -2.32812,-0.42188 q 0.40625,-1.40625 1.35937,-2.07812 0.95313,-0.67188 2.84375,-0.67188 1.70313,0 2.54688,0.40625 0.84375,0.40625 1.17187,1.03125 0.34375,0.625 0.34375,2.28125 l -0.0156,3 q 0,1.26563 0.10937,1.875 0.125,0.60938 0.46875,1.29688 h -2.53125 q -0.10937,-0.25 -0.25,-0.75 -0.0625,-0.23438 -0.0937,-0.3125 -0.65625,0.64062 -1.40625,0.96875 -0.73437,0.3125 -1.59375,0.3125 -1.48437,0 -2.34375,-0.8125 -0.85937,-0.8125 -0.85937,-2.04688 0,-0.82812 0.39062,-1.46875 0.39063,-0.64062 1.09375,-0.96875 0.70313,-0.34375 2.03125,-0.60937 1.79688,-0.32813 2.48438,-0.625 v -0.25 q 0,-0.75 -0.35938,-1.0625 -0.35937,-0.3125 -1.375,-0.3125 -0.6875,0 -1.07812,0.28125 -0.375,0.26562 -0.60938,0.9375 z m 3.42188,2.07812 q -0.48438,0.15625 -1.5625,0.39063 -1.0625,0.21875 -1.39063,0.4375 -0.5,0.35937 -0.5,0.90625 0,0.53125 0.40625,0.9375 0.40625,0.39062 1.01563,0.39062 0.70312,0 1.32812,-0.46875 0.46875,-0.34375 0.60938,-0.84375 0.0937,-0.32812 0.0937,-1.25 z m 13.84446,4.64063 h -2.5625 v -4.9375 q 0,-1.5625 -0.17187,-2.01563 -0.15625,-0.46875 -0.53125,-0.71875 -0.35938,-0.26562 -0.875,-0.26562 -0.67188,0 -1.20313,0.375 -0.53125,0.35937 -0.73437,0.96875 -0.1875,0.59375 -0.1875,2.21875 v 4.375 h -2.54688 v -9.67188 h 2.375 v 1.42188 q 1.26563,-1.64063 3.1875,-1.64063 0.84375,0 1.54688,0.3125 0.70312,0.29688 1.0625,0.78125 0.35937,0.46875 0.5,1.07813 0.14062,0.59375 0.14062,1.70312 z m 2.36473,0.64062 2.92188,0.35938 q 0.0625,0.5 0.32812,0.6875 0.375,0.28125 1.15625,0.28125 1,0 1.5,-0.29688 0.32813,-0.20312 0.51563,-0.65625 0.10937,-0.3125 0.10937,-1.17187 v -1.40625 q -1.14062,1.5625 -2.89062,1.5625 -1.95313,0 -3.09375,-1.65625 -0.89063,-1.29688 -0.89063,-3.23438 0,-2.4375 1.17188,-3.71875 1.17187,-1.28125 2.90625,-1.28125 1.79687,0 2.96875,1.57813 v -1.35938 h 2.39062 v 8.67188 q 0,1.71875 -0.28125,2.5625 -0.28125,0.84375 -0.79687,1.32812 -0.5,0.48438 -1.35938,0.75 -0.84375,0.28125 -2.15625,0.28125 -2.45312,0 -3.48437,-0.84375 -1.03125,-0.84375 -1.03125,-2.125 0,-0.14062 0.0156,-0.3125 z m 2.28125,-5.67187 q 0,1.53125 0.59375,2.25 0.59375,0.71875 1.46875,0.71875 0.9375,0 1.57813,-0.73438 0.65625,-0.73437 0.65625,-2.17187 0,-1.51563 -0.625,-2.23438 -0.60938,-0.73437 -1.5625,-0.73437 -0.92188,0 -1.51563,0.71875 -0.59375,0.71875 -0.59375,2.1875 z m 9.34911,5.03125 v -13.35938 h 2.5625 v 13.35938 z m 10.77707,-3.07813 2.54687,0.42188 q -0.48437,1.40625 -1.54687,2.14062 -1.0625,0.73438 -2.65627,0.73438 -2.51562,0 -3.73437,-1.65625 -0.95313,-1.3125 -0.95313,-3.32813 0,-2.40625 1.25,-3.76562 1.26563,-1.35938 3.1875,-1.35938 2.15627,0 3.40627,1.42188 1.25,1.42187 1.1875,4.375 h -6.40627 q 0.0312,1.14062 0.60938,1.78125 0.59375,0.625 1.48437,0.625 0.59377,0 1.00002,-0.32813 0.42187,-0.32812 0.625,-1.0625 z m 0.15625,-2.59375 q -0.0312,-1.10937 -0.57813,-1.6875 -0.54687,-0.57812 -1.32814,-0.57812 -0.84375,0 -1.39062,0.60937 -0.54688,0.60938 -0.53125,1.65625 z"
     fill-rule="nonzero"
     id="path141" />
  <path
     fill="#efefef"
     d="m 107.43307,0.5 h 144 v 96 h -144 z"
     fill-rule="evenodd"
     id="path143" />
  <path
     stroke="#000000"
     stroke-width="1"
     stroke-linejoin="round"
     stroke-linecap="butt"
     d="m 107.43307,0.5 h 144 v 96 h -144 z"
     fill-rule="evenodd"
     id="path145" />
  <path
     fill="#000000"
     d="m 125.73199,59.12312 v -17.0625 h 3.60937 v 1.359375 h -1.96875 V 57.76375 h 1.96875 v 1.35937 z m 4.8083,-15.3125 v -1.578125 h 8.64063 v 1.28125 q -1.28125,1.359375 -2.53125,3.609375 -1.25,2.25 -1.9375,4.625 -0.48438,1.67188 -0.625,3.67188 h -1.6875 q 0.0312,-1.57813 0.625,-3.812505 0.59375,-2.234375 1.6875,-4.296875 1.10937,-2.078125 2.35937,-3.5 z m 11.1726,3.796875 V 45.74812 h 1.85937 v 1.859375 z m 0,7.812505 v -1.875 h 1.85937 v 1.875 z m 4.27705,-6.593755 q 0,-2.359375 0.48437,-3.796875 0.48438,-1.453125 1.4375,-2.234375 0.96875,-0.78125 2.42188,-0.78125 1.07812,0 1.89062,0.4375 0.8125,0.421875 1.32813,1.25 0.53125,0.8125 0.82812,1.984375 0.3125,1.15625 0.3125,3.140625 0,2.359375 -0.48437,3.812505 -0.48438,1.4375 -1.45313,2.23437 -0.95312,0.78125 -2.42187,0.78125 -1.92188,0 -3.03125,-1.39062 -1.3125,-1.67188 -1.3125,-5.437505 z m 1.67187,0 q 0,3.296875 0.76563,4.390625 0.78125,1.07813 1.90625,1.07813 1.14062,0 1.90625,-1.09375 0.76562,-1.093755 0.76562,-4.375005 0,-3.296875 -0.76562,-4.375 -0.76563,-1.078125 -1.92188,-1.078125 -1.125,0 -1.79687,0.953125 -0.85938,1.21875 -0.85938,4.5 z m 11.89135,10.296875 h -3.60938 v -1.35937 h 1.96875 V 43.419995 h -1.96875 V 42.06062 h 3.60938 z m 7.6166,-3.70312 v -9.67188 h 1.46875 v 1.46875 q 0.5625,-1.03125 1.03125,-1.359375 0.48438,-0.328125 1.0625,-0.328125 0.82813,0 1.6875,0.53125 l -0.5625,1.515625 q -0.60937,-0.359375 -1.20312,-0.359375 -0.54688,0 -0.96875,0.328125 -0.42188,0.328125 -0.60938,0.890625 -0.28125,0.875 -0.28125,1.921875 V 55.42 Z m 12.85331,-3.10938 1.6875,0.20313 q -0.40625,1.48437 -1.48438,2.3125 -1.07812,0.8125 -2.76562,0.8125 -2.125,0 -3.375,-1.29688 -1.23438,-1.3125 -1.23438,-3.671875 0,-2.453125 1.25,-3.796875 1.26563,-1.34375 3.26563,-1.34375 1.9375,0 3.15625,1.328125 1.23437,1.3125 1.23437,3.703125 0,0.15625 0,0.4375 h -7.21875 q 0.0937,1.59375 0.90625,2.45313 0.8125,0.84375 2.01563,0.84375 0.90625,0 1.54687,-0.46875 0.64063,-0.48438 1.01563,-1.51563 z m -5.39063,-2.65625 h 5.40625 q -0.10937,-1.21875 -0.625,-1.828125 -0.78125,-0.953125 -2.03125,-0.953125 -1.125,0 -1.90625,0.765625 -0.76562,0.75 -0.84375,2.015625 z m 8.82884,6.5625 1.59375,0.23438 q 0.10938,0.75 0.5625,1.07812 0.60938,0.45313 1.67188,0.45313 1.14062,0 1.75,-0.45313 0.625,-0.45312 0.84375,-1.26562 0.125,-0.5 0.10937,-2.10938 -1.0625,1.26563 -2.67187,1.26563 -2,0 -3.09375,-1.4375 -1.09375,-1.4375 -1.09375,-3.45313 0,-1.390625 0.5,-2.5625 0.51562,-1.171875 1.45312,-1.796875 0.95313,-0.640625 2.25,-0.640625 1.70313,0 2.8125,1.375 v -1.15625 h 1.51563 v 8.35938 q 0,2.26562 -0.46875,3.20312 -0.45313,0.9375 -1.45313,1.48438 -0.98437,0.54687 -2.45312,0.54687 -1.71875,0 -2.79688,-0.78125 -1.0625,-0.76562 -1.03125,-2.34375 z m 1.35938,-5.8125 q 0,1.90625 0.75,2.78125 0.76562,0.875 1.90625,0.875 1.125,0 1.89062,-0.85937 0.76563,-0.875005 0.76563,-2.73438 0,-1.78125 -0.79688,-2.671875 -0.78125,-0.90625 -1.89062,-0.90625 -1.09375,0 -1.85938,0.890625 -0.76562,0.875 -0.76562,2.625 z m 14.54339,8.71875 v -17.0625 h 3.60938 v 1.359375 h -1.96875 V 57.76375 h 1.96875 v 1.35937 z m 4.69893,-10.296875 q 0,-2.359375 0.48438,-3.796875 0.48437,-1.453125 1.4375,-2.234375 0.96875,-0.78125 2.42187,-0.78125 1.07813,0 1.89063,0.4375 0.8125,0.421875 1.32812,1.25 0.53125,0.8125 0.82813,1.984375 0.3125,1.15625 0.3125,3.140625 0,2.359375 -0.48438,3.812505 -0.48437,1.4375 -1.45312,2.23437 -0.95313,0.78125 -2.42188,0.78125 -1.92187,0 -3.03125,-1.39062 -1.3125,-1.67188 -1.3125,-5.437505 z m 1.67188,0 q 0,3.296875 0.76562,4.390625 0.78125,1.07813 1.90625,1.07813 1.14063,0 1.90625,-1.09375 0.76563,-1.093755 0.76563,-4.375005 0,-3.296875 -0.76563,-4.375 -0.76562,-1.078125 -1.92187,-1.078125 -1.125,0 -1.79688,0.953125 -0.85937,1.21875 -0.85937,4.5 z m 9.61009,-1.21875 V 45.74812 h 1.85938 v 1.859375 z m 0,7.812505 v -1.875 h 1.85938 v 1.875 z m 4.38643,-11.60938 v -1.578125 h 8.64062 v 1.28125 q -1.28125,1.359375 -2.53125,3.609375 -1.25,2.25 -1.9375,4.625 -0.48437,1.67188 -0.625,3.67188 h -1.6875 q 0.0312,-1.57813 0.625,-3.812505 0.59375,-2.234375 1.6875,-4.296875 1.10938,-2.078125 2.35938,-3.5 z m 13.45383,15.3125 h -3.60938 v -1.35937 h 1.96875 V 43.419995 h -1.96875 V 42.06062 h 3.60938 z"
     fill-rule="nonzero"
     id="path147" />
  <path
     fill="#efefef"
     d="m 275.43307,289.18765 h 198.20471 v -16 l 32,32 -32,32 v -16 H 275.43307 Z"
     fill-rule="evenodd"
     id="path149" />
  <path
     stroke="#000000"
     stroke-width="1"
     stroke-linejoin="round"
     stroke-linecap="butt"
     d="m 275.43307,289.18765 h 198.20471 v -16 l 32,32 -32,32 v -16 H 275.43307 Z"
     fill-rule="evenodd"
     id="path151" />
  <path
     fill="#000000"
     d="m 450.3768,312.10767 v -3.20313 h -5.79687 v -1.5 l 6.09375,-8.65625 h 1.34375 v 8.65625 h 1.79687 v 1.5 h -1.79687 v 3.20313 z m 0,-4.70313 v -6.01562 l -4.1875,6.01562 z m 4.93823,0.6875 v -1.64062 h 5.03125 v 1.64062 z m 8.3533,4.01563 h -1.51562 v -13.35938 h 1.64062 v 4.76563 q 1.04688,-1.29688 2.65625,-1.29688 0.89063,0 1.6875,0.35938 0.79688,0.35937 1.3125,1.01562 0.51563,0.64063 0.79688,1.5625 0.29687,0.92188 0.29687,1.96875 0,2.48438 -1.23437,3.84375 -1.21875,1.35938 -2.95313,1.35938 -1.70312,0 -2.6875,-1.4375 z m -0.0156,-4.90625 q 0,1.73437 0.48437,2.51562 0.76563,1.26563 2.09375,1.26563 1.07813,0 1.85938,-0.9375 0.78125,-0.9375 0.78125,-2.78125 0,-1.89063 -0.75,-2.79688 -0.75,-0.90625 -1.82813,-0.90625 -1.0625,0 -1.85937,0.9375 -0.78125,0.9375 -0.78125,2.70313 z m 8.89133,-6.5625 v -1.89063 h 1.64062 v 1.89063 z m 0,11.46875 v -9.67188 h 1.64062 v 9.67188 z m 7.72296,-1.46875 0.23437,1.45312 q -0.6875,0.14063 -1.23437,0.14063 -0.89063,0 -1.39063,-0.28125 -0.48437,-0.28125 -0.6875,-0.73438 -0.20312,-0.46875 -0.20312,-1.9375 v -5.57812 h -1.20313 v -1.26563 h 1.20313 v -2.39062 l 1.625,-0.98438 v 3.375 h 1.65625 v 1.26563 h -1.65625 v 5.67187 q 0,0.6875 0.0781,0.89063 0.0937,0.20312 0.28125,0.32812 0.20313,0.10938 0.57813,0.10938 0.26562,0 0.71875,-0.0625 z"
     fill-rule="nonzero"
     id="path153" />
  <path
     fill="#000000"
     fill-opacity="0"
     d="M 0,48.5 H 107.43307"
     fill-rule="evenodd"
     id="path155" />
  <path
     stroke="#000000"
     stroke-width="3"
     stroke-linejoin="round"
     stroke-linecap="butt"
     d="M 0,48.5 H 89.43308"
     fill-rule="evenodd"
     id="path157" />
  <path
     fill="#000000"
     stroke="#000000"
     stroke-width="3"
     stroke-linecap="butt"
     d="M 89.43307,53.4552 103.04736,48.5 89.43307,43.5448 Z"
     fill-rule="evenodd"
     id="path159" />
  <path
     fill="#000000"
     fill-opacity="0"
     d="m 179.43307,96.5 v 60.53543"
     fill-rule="evenodd"
     id="path161" />
  <path
     stroke="#000000"
     stroke-width="3"
     stroke-linejoin="round"
     stroke-linecap="butt"
     d="m 179.43307,96.5 v 42.53543"
     fill-rule="evenodd"
     id="path163" />
  <path
     fill="#000000"
     stroke="#000000"
     stroke-width="3"
     stroke-linecap="butt"
     d="m 174.47787,139.03543 4.9552,13.61429 4.9552,-13.61429 z"
     fill-rule="evenodd"
     id="path165" />
  <path
     fill="#000000"
     fill-opacity="0"
     d="M 0,0.5 H 107.43307 V 42.515747 H 0 Z"
     fill-rule="evenodd"
     id="path167" />
  <path
     fill="#000000"
     d="m 10.637637,24.32625 1.578125,-0.140625 q 0.203125,1.109375 0.765625,1.609375 0.5625,0.5 1.453125,0.5 0.75,0 1.3125,-0.34375 0.578125,-0.34375 0.9375,-0.921875 0.375,-0.578125 0.609375,-1.5625 0.25,-0.984375 0.25,-2 0,-0.109375 0,-0.328125 -0.5,0.78125 -1.359375,1.265625 -0.84375,0.484375 -1.828125,0.484375 -1.671875,0 -2.8125,-1.203125 -1.140625,-1.203125 -1.140625,-3.171875 0,-2.03125 1.1875,-3.265625 1.203125,-1.234375 3,-1.234375 1.3125,0 2.390625,0.703125 1.078125,0.703125 1.640625,2 0.5625,1.296875 0.5625,3.75 0,2.5625 -0.5625,4.078125 -0.5625,1.515625 -1.65625,2.3125 -1.09375,0.796875 -2.578125,0.796875 -1.5625,0 -2.5625,-0.875 -0.984375,-0.875 -1.1875,-2.453125 z m 6.71875,-5.890625 q 0,-1.40625 -0.75,-2.234375 -0.75,-0.828125 -1.8125,-0.828125 -1.09375,0 -1.90625,0.890625 -0.8125,0.890625 -0.8125,2.3125 0,1.28125 0.765625,2.078125 0.78125,0.796875 1.90625,0.796875 1.140625,0 1.875,-0.796875 0.734375,-0.796875 0.734375,-2.21875 z m 11.922592,-1.09375 -1.625,0.125 q -0.21875,-0.96875 -0.625,-1.40625 -0.65625,-0.703125 -1.640625,-0.703125 -0.78125,0 -1.375,0.4375 -0.765625,0.5625 -1.21875,1.65625 -0.453125,1.078125 -0.46875,3.078125 0.59375,-0.890625 1.453125,-1.328125 0.859375,-0.4375 1.796875,-0.4375 1.640625,0 2.78125,1.203125 1.15625,1.203125 1.15625,3.109375 0,1.265625 -0.546875,2.34375 -0.53125,1.078125 -1.484375,1.65625 -0.9375,0.578125 -2.140625,0.578125 -2.0625,0 -3.359375,-1.5 -1.28125,-1.515625 -1.28125,-4.984375 0,-3.875 1.421875,-5.625 1.25,-1.53125 3.375,-1.53125 1.5625,0 2.5625,0.890625 1.015625,0.875 1.21875,2.4375 z m -6.6875,5.75 q 0,0.84375 0.359375,1.625 0.359375,0.765625 1,1.171875 0.640625,0.40625 1.359375,0.40625 1.03125,0 1.78125,-0.828125 0.75,-0.84375 0.75,-2.28125 0,-1.390625 -0.734375,-2.1875 -0.734375,-0.796875 -1.859375,-0.796875 -1.109375,0 -1.890625,0.796875 -0.765625,0.796875 -0.765625,2.09375 z m 8.563217,-2.265625 q 0,-2.359375 0.484375,-3.796875 0.484375,-1.453125 1.4375,-2.234375 0.96875,-0.78125 2.421875,-0.78125 1.078125,0 1.890625,0.4375 0.8125,0.421875 1.328125,1.25 0.53125,0.8125 0.828125,1.984375 0.3125,1.15625 0.3125,3.140625 0,2.359375 -0.484375,3.8125 -0.484375,1.4375 -1.453125,2.234375 -0.953125,0.78125 -2.421875,0.78125 -1.921875,0 -3.03125,-1.390625 -1.3125,-1.671875 -1.3125,-5.4375 z m 1.671875,0 q 0,3.296875 0.765625,4.390625 0.78125,1.078125 1.90625,1.078125 1.140625,0 1.90625,-1.09375 0.765625,-1.09375 0.765625,-4.375 0,-3.296875 -0.765625,-4.375 -0.765625,-1.078125 -1.921875,-1.078125 -1.125,0 -1.796875,0.953125 -0.859375,1.21875 -0.859375,4.5 z m 8.703842,0 q 0,-2.359375 0.484375,-3.796875 0.484375,-1.453125 1.4375,-2.234375 0.96875,-0.78125 2.421875,-0.78125 1.078125,0 1.890625,0.4375 0.8125,0.421875 1.328125,1.25 0.53125,0.8125 0.828125,1.984375 0.3125,1.15625 0.3125,3.140625 0,2.359375 -0.484375,3.8125 -0.484375,1.4375 -1.453125,2.234375 -0.953125,0.78125 -2.421875,0.78125 -1.921875,0 -3.03125,-1.390625 -1.3125,-1.671875 -1.3125,-5.4375 z m 1.671875,0 q 0,3.296875 0.765625,4.390625 0.78125,1.078125 1.90625,1.078125 1.140625,0 1.90625,-1.09375 0.765625,-1.09375 0.765625,-4.375 0,-3.296875 -0.765625,-4.375 -0.765625,-1.078125 -1.921875,-1.078125 -1.125,0 -1.796875,0.953125 -0.859375,1.21875 -0.859375,4.5 z M 59.042559,27.42 H 57.526934 V 14.060625 h 1.640625 v 4.765625 q 1.046875,-1.296875 2.65625,-1.296875 0.890625,0 1.687501,0.359375 0.79687,0.359375 1.3125,1.015625 0.51562,0.640625 0.79687,1.5625 0.29688,0.921875 0.29688,1.96875 0,2.484375 -1.23438,3.84375 -1.21875,1.359375 -2.953121,1.359375 -1.703125,0 -2.6875,-1.4375 z m -0.01563,-4.90625 q 0,1.734375 0.484375,2.515625 0.765625,1.265625 2.09375,1.265625 1.078125,0 1.859366,-0.9375 0.78125,-0.9375 0.78125,-2.78125 0,-1.890625 -0.75,-2.796875 -0.749991,-0.90625 -1.828116,-0.90625 -1.0625,0 -1.859375,0.9375 -0.78125,0.9375 -0.78125,2.703125 z M 74.23077,26.2325 q -0.92188,0.765625 -1.76563,1.09375 -0.82812,0.3125 -1.79687,0.3125 -1.59375,0 -2.45313,-0.78125 -0.85937,-0.78125 -0.85937,-1.984375 0,-0.71875 0.32812,-1.296875 0.32813,-0.59375 0.84375,-0.9375 0.53125,-0.359375 1.1875,-0.546875 0.46875,-0.125 1.45313,-0.25 1.98437,-0.234375 2.92187,-0.5625 0.0156,-0.34375 0.0156,-0.421875 0,-1 -0.46875,-1.421875 -0.625,-0.546875 -1.875,-0.546875 -1.15625,0 -1.70313,0.40625 -0.54687,0.40625 -0.8125,1.421875 l -1.60937,-0.21875 q 0.21875,-1.015625 0.71875,-1.640625 0.5,-0.640625 1.45312,-0.984375 0.95313,-0.34375 2.1875,-0.34375 1.25,0 2.01563,0.296875 0.78125,0.28125 1.14062,0.734375 0.375,0.4375 0.51563,1.109375 0.0781,0.421875 0.0781,1.515625 v 2.1875 q 0,2.28125 0.10938,2.890625 0.10937,0.59375 0.40625,1.15625 h -1.70313 q -0.26562,-0.515625 -0.32812,-1.1875 z m -0.14063,-3.671875 q -0.89062,0.375 -2.67187,0.625 -1.01563,0.140625 -1.4375,0.328125 -0.42188,0.1875 -0.65625,0.53125 -0.21875,0.34375 -0.21875,0.78125 0,0.65625 0.5,1.09375 0.5,0.4375 1.45312,0.4375 0.9375,0 1.67188,-0.40625 0.75,-0.421875 1.09375,-1.140625 0.26562,-0.5625 0.26562,-1.640625 z M 84.62212,27.42 v -1.421875 q -1.125,1.640625 -3.0625,1.640625 -0.85938,0 -1.60938,-0.328125 -0.73437,-0.328125 -1.09375,-0.828125 -0.35937,-0.5 -0.5,-1.21875 Q 78.24712,24.795 78.24712,23.7325 v -5.984375 h 1.64062 V 23.1075 q 0,1.28125 0.10938,1.734375 0.15625,0.640625 0.65625,1.015625 0.5,0.375 1.23437,0.375 0.73438,0 1.375,-0.375 0.65625,-0.390625 0.92188,-1.03125 0.26562,-0.65625 0.26562,-1.890625 v -5.1875 h 1.64063 V 27.42 Z m 10.31321,0 v -1.21875 q -0.90625,1.4375 -2.70313,1.4375 -1.15624,0 -2.12499,-0.640625 -0.96875,-0.640625 -1.5,-1.78125 -0.53125,-1.140625 -0.53125,-2.625 0,-1.453125 0.48438,-2.625 0.48437,-1.1875 1.4375,-1.8125 0.96875,-0.625 2.17186,-0.625 0.875,0 1.54688,0.375 0.6875,0.359375 1.10937,0.953125 v -4.796875 h 1.64063 V 27.42 Z m -5.17187,-4.828125 q 0,1.859375 0.78125,2.78125 0.78125,0.921875 1.84374,0.921875 1.07813,0 1.82813,-0.875 0.75,-0.890625 0.75,-2.6875 0,-1.984375 -0.76563,-2.90625 -0.76562,-0.9375 -1.89062,-0.9375 -1.07812,0 -1.81249,0.890625 -0.73438,0.890625 -0.73438,2.8125 z"
     fill-rule="nonzero"
     id="path169" />
  <path
     fill="#efefef"
     d="m 119.43307,203.79659 h 120 v 42.01576 h -120 z"
     fill-rule="evenodd"
     id="path171" />
  <path
     stroke="#000000"
     stroke-width="1"
     stroke-linejoin="round"
     stroke-linecap="butt"
     d="m 119.43307,203.79659 h 120 v 42.01576 h -120 z"
     fill-rule="evenodd"
     id="path173" />
  <path
     fill="#000000"
     d="m 136.89257,231.72446 v -13.35937 h 9.01562 v 1.57812 h -7.25 v 4.14063 h 6.26563 v 1.57812 h -6.26563 v 6.0625 z m 11.08348,0 v -9.67187 h 1.46875 v 1.46875 q 0.5625,-1.03125 1.03125,-1.35938 0.48438,-0.32812 1.0625,-0.32812 0.82813,0 1.6875,0.53125 l -0.5625,1.51562 q -0.60937,-0.35937 -1.20312,-0.35937 -0.54688,0 -0.96875,0.32812 -0.42188,0.32813 -0.60938,0.89063 -0.28125,0.875 -0.28125,1.92187 v 5.0625 z m 12.8533,-3.10937 1.6875,0.20312 q -0.40625,1.48438 -1.48437,2.3125 -1.07813,0.8125 -2.76563,0.8125 -2.125,0 -3.375,-1.29687 -1.23437,-1.3125 -1.23437,-3.67188 0,-2.45312 1.25,-3.79687 1.26562,-1.34375 3.26562,-1.34375 1.9375,0 3.15625,1.32812 1.23438,1.3125 1.23438,3.70313 0,0.15625 0,0.4375 h -7.21875 q 0.0937,1.59375 0.90625,2.45312 0.8125,0.84375 2.01562,0.84375 0.90625,0 1.54688,-0.46875 0.64062,-0.48437 1.01562,-1.51562 z m -5.39062,-2.65625 h 5.40625 q -0.10938,-1.21875 -0.625,-1.82813 -0.78125,-0.95312 -2.03125,-0.95312 -1.125,0 -1.90625,0.76562 -0.76563,0.75 -0.84375,2.01563 z m 15.29759,9.46875 v -4.73438 q -0.375,0.54688 -1.0625,0.90625 -0.6875,0.34375 -1.46875,0.34375 -1.71875,0 -2.96875,-1.375 -1.23438,-1.375 -1.23438,-3.76562 0,-1.46875 0.5,-2.625 0.51563,-1.15625 1.46875,-1.75 0.96875,-0.59375 2.10938,-0.59375 1.79687,0 2.82812,1.51562 v -1.29687 h 1.46875 v 13.375 z m -5.04688,-8.5625 q 0,1.85937 0.78125,2.79687 0.78125,0.9375 1.875,0.9375 1.04688,0 1.79688,-0.89062 0.76562,-0.89063 0.76562,-2.70313 0,-1.9375 -0.79687,-2.90625 -0.79688,-0.96875 -1.875,-0.96875 -1.0625,0 -1.8125,0.90625 -0.73438,0.90625 -0.73438,2.82813 z m 15.59447,4.85937 v -1.42187 q -1.125,1.64062 -3.0625,1.64062 -0.85937,0 -1.60937,-0.32812 -0.73438,-0.32813 -1.09375,-0.82813 -0.35938,-0.5 -0.5,-1.21875 -0.10938,-0.46875 -0.10938,-1.53125 v -5.98437 h 1.64063 v 5.35937 q 0,1.28125 0.10937,1.73438 0.15625,0.64062 0.65625,1.01562 0.5,0.375 1.23438,0.375 0.73437,0 1.375,-0.375 0.65625,-0.39062 0.92187,-1.03125 0.26563,-0.65625 0.26563,-1.89062 v -5.1875 h 1.64062 v 9.67187 z m 10.67259,-3.10937 1.6875,0.20312 q -0.40625,1.48438 -1.48437,2.3125 -1.07813,0.8125 -2.76563,0.8125 -2.125,0 -3.375,-1.29687 -1.23437,-1.3125 -1.23437,-3.67188 0,-2.45312 1.25,-3.79687 1.26562,-1.34375 3.26562,-1.34375 1.9375,0 3.15625,1.32812 1.23438,1.3125 1.23438,3.70313 0,0.15625 0,0.4375 h -7.21875 q 0.0937,1.59375 0.90625,2.45312 0.8125,0.84375 2.01562,0.84375 0.90625,0 1.54688,-0.46875 0.64062,-0.48437 1.01562,-1.51562 z m -5.39062,-2.65625 h 5.40625 q -0.10938,-1.21875 -0.625,-1.82813 -0.78125,-0.95312 -2.03125,-0.95312 -1.125,0 -1.90625,0.76562 -0.76563,0.75 -0.84375,2.01563 z m 9.14134,5.76562 v -9.67187 h 1.46875 v 1.375 q 1.0625,-1.59375 3.07813,-1.59375 0.875,0 1.60937,0.3125 0.73438,0.3125 1.09375,0.82812 0.375,0.5 0.51563,1.20313 0.0937,0.45312 0.0937,1.59375 v 5.95312 h -1.64063 v -5.89062 q 0,-1 -0.20312,-1.48438 -0.1875,-0.5 -0.67188,-0.79687 -0.48437,-0.29688 -1.14062,-0.29688 -1.04688,0 -1.8125,0.67188 -0.75,0.65625 -0.75,2.51562 v 5.28125 z m 16.68822,-3.54687 1.60937,0.21875 q -0.26562,1.65625 -1.35937,2.60937 -1.07813,0.9375 -2.67188,0.9375 -1.98437,0 -3.1875,-1.29687 -1.20312,-1.29688 -1.20312,-3.71875 0,-1.57813 0.51562,-2.75 0.51563,-1.17188 1.57813,-1.75 1.0625,-0.59375 2.3125,-0.59375 1.57812,0 2.57812,0.79687 1,0.79688 1.28125,2.26563 l -1.59375,0.23437 q -0.23437,-0.96875 -0.8125,-1.45312 -0.57812,-0.5 -1.39062,-0.5 -1.23438,0 -2.01563,0.89062 -0.78125,0.89063 -0.78125,2.8125 0,1.95313 0.75,2.84375 0.75,0.875 1.95313,0.875 0.96875,0 1.60937,-0.59375 0.65625,-0.59375 0.82813,-1.82812 z m 2.9375,7.26562 -0.1875,-1.53125 q 0.54687,0.14063 0.9375,0.14063 0.54687,0 0.875,-0.1875 0.32812,-0.17188 0.54687,-0.5 0.15625,-0.25 0.5,-1.21875 0.0469,-0.14063 0.14063,-0.40625 l -3.67188,-9.6875 h 1.76563 l 2.01562,5.59375 q 0.39063,1.07812 0.70313,2.25 0.28125,-1.125 0.67187,-2.20313 l 2.07813,-5.64062 h 1.64062 l -3.6875,9.82812 q -0.59375,1.60938 -0.92187,2.20313 -0.4375,0.8125 -1,1.1875 -0.5625,0.375 -1.34375,0.375 -0.48438,0 -1.0625,-0.20313 z"
     fill-rule="nonzero"
     id="path175" />
  <path
     fill="#efefef"
     d="m 119.43307,261.5866 h 120 v 42.01575 h -120 z"
     fill-rule="evenodd"
     id="path177" />
  <path
     stroke="#000000"
     stroke-width="1"
     stroke-linejoin="round"
     stroke-linecap="butt"
     d="m 119.43307,261.5866 h 120 v 42.01575 h -120 z"
     fill-rule="evenodd"
     id="path179" />
  <path
     fill="#000000"
     d="m 135.77401,289.5145 v -13.35938 h 4.60937 q 1.54688,0 2.375,0.20313 1.14063,0.25 1.95313,0.95312 1.0625,0.89063 1.57812,2.28125 0.53125,1.39063 0.53125,3.17188 0,1.51562 -0.35937,2.70312 -0.35938,1.17188 -0.92188,1.9375 -0.54687,0.76563 -1.20312,1.21875 -0.65625,0.4375 -1.59375,0.67188 -0.9375,0.21875 -2.14063,0.21875 z m 1.76562,-1.57813 h 2.85938 q 1.3125,0 2.0625,-0.23437 0.75,-0.25 1.20312,-0.70313 0.625,-0.625 0.96875,-1.6875 0.35938,-1.0625 0.35938,-2.57812 0,-2.09375 -0.6875,-3.21875 -0.6875,-1.125 -1.67188,-1.5 -0.70312,-0.28125 -2.28125,-0.28125 h -2.8125 z m 17.83231,1.57813 v -1.42188 q -1.125,1.64063 -3.0625,1.64063 -0.85937,0 -1.60937,-0.32813 -0.73438,-0.32812 -1.09375,-0.82812 -0.35938,-0.5 -0.5,-1.21875 -0.10938,-0.46875 -0.10938,-1.53125 v -5.98438 h 1.64063 v 5.35938 q 0,1.28125 0.10937,1.73437 0.15625,0.64063 0.65625,1.01563 0.5,0.375 1.23438,0.375 0.73437,0 1.375,-0.375 0.65625,-0.39063 0.92187,-1.03125 0.26563,-0.65625 0.26563,-1.89063 v -5.1875 h 1.64062 v 9.67188 z m 7.62573,-1.46875 0.23438,1.45312 q -0.6875,0.14063 -1.23438,0.14063 -0.89062,0 -1.39062,-0.28125 -0.48438,-0.28125 -0.6875,-0.73438 -0.20313,-0.46875 -0.20313,-1.9375 v -5.57812 h -1.20312 v -1.26563 h 1.20312 V 277.452 l 1.625,-0.98438 v 3.375 h 1.65625 v 1.26563 h -1.65625 v 5.67187 q 0,0.6875 0.0781,0.89063 0.0937,0.20312 0.28125,0.32812 0.20312,0.10938 0.57812,0.10938 0.26563,0 0.71875,-0.0625 z m 1.52704,5.1875 -0.1875,-1.53125 q 0.54688,0.14062 0.9375,0.14062 0.54688,0 0.875,-0.1875 0.32813,-0.17187 0.54688,-0.5 0.15625,-0.25 0.5,-1.21875 0.0469,-0.14062 0.14062,-0.40625 l -3.67187,-9.6875 h 1.76562 l 2.01563,5.59375 q 0.39062,1.07813 0.70312,2.25 0.28125,-1.125 0.67188,-2.20312 l 2.07812,-5.64063 h 1.64063 l -3.6875,9.82813 q -0.59375,1.60937 -0.92188,2.20312 -0.4375,0.8125 -1,1.1875 -0.5625,0.375 -1.34375,0.375 -0.48437,0 -1.0625,-0.20312 z m 24.32395,-8.40625 1.76562,0.45312 q -0.5625,2.17188 -2,3.32813 -1.4375,1.14062 -3.53125,1.14062 -2.15625,0 -3.51562,-0.875 -1.34375,-0.89062 -2.0625,-2.54687 -0.70313,-1.67188 -0.70313,-3.59375 0,-2.07813 0.79688,-3.625 0.79687,-1.5625 2.26562,-2.35938 1.48438,-0.8125 3.25,-0.8125 2,0 3.35938,1.01563 1.375,1.01562 1.90625,2.875 l -1.73438,0.40625 q -0.46875,-1.45313 -1.35937,-2.10938 -0.875,-0.67187 -2.20313,-0.67187 -1.54687,0 -2.57812,0.73437 -1.03125,0.73438 -1.45313,1.98438 -0.42187,1.23437 -0.42187,2.5625 0,1.70312 0.5,2.96875 0.5,1.26562 1.54687,1.90625 1.04688,0.625 2.26563,0.625 1.48437,0 2.51562,-0.85938 1.03125,-0.85937 1.39063,-2.54687 z m 3.66043,8.40625 -0.1875,-1.53125 q 0.54687,0.14062 0.9375,0.14062 0.54687,0 0.875,-0.1875 0.32812,-0.17187 0.54687,-0.5 0.15625,-0.25 0.5,-1.21875 0.0469,-0.14062 0.14063,-0.40625 l -3.67188,-9.6875 h 1.76563 l 2.01562,5.59375 q 0.39063,1.07813 0.70313,2.25 0.28125,-1.125 0.67187,-2.20312 l 2.07813,-5.64063 h 1.64062 l -3.6875,9.82813 q -0.59375,1.60937 -0.92187,2.20312 -0.4375,0.8125 -1,1.1875 -0.5625,0.375 -1.34375,0.375 -0.48438,0 -1.0625,-0.20312 z m 15.71875,-7.26563 1.60937,0.21875 q -0.26562,1.65625 -1.35937,2.60938 -1.07813,0.9375 -2.67188,0.9375 -1.98437,0 -3.1875,-1.29688 -1.20312,-1.29687 -1.20312,-3.71875 0,-1.57812 0.51562,-2.75 0.51563,-1.17187 1.57813,-1.75 1.0625,-0.59375 2.3125,-0.59375 1.57812,0 2.57812,0.79688 1,0.79687 1.28125,2.26562 l -1.59375,0.23438 q -0.23437,-0.96875 -0.8125,-1.45313 -0.57812,-0.5 -1.39062,-0.5 -1.23438,0 -2.01563,0.89063 -0.78125,0.89062 -0.78125,2.8125 0,1.95312 0.75,2.84375 0.75,0.875 1.95313,0.875 0.96875,0 1.60937,-0.59375 0.65625,-0.59375 0.82813,-1.82813 z m 2.96875,3.54688 v -13.35938 h 1.64062 v 13.35938 z m 10.81671,-3.10938 1.6875,0.20313 q -0.40625,1.48437 -1.48438,2.3125 -1.07812,0.8125 -2.76562,0.8125 -2.125,0 -3.375,-1.29688 -1.23438,-1.3125 -1.23438,-3.67187 0,-2.45313 1.25,-3.79688 1.26563,-1.34375 3.26563,-1.34375 1.9375,0 3.15625,1.32813 1.23437,1.3125 1.23437,3.70312 0,0.15625 0,0.4375 h -7.21875 q 0.0937,1.59375 0.90625,2.45313 0.8125,0.84375 2.01563,0.84375 0.90625,0 1.54687,-0.46875 0.64063,-0.48438 1.01563,-1.51563 z m -5.39063,-2.65625 h 5.40625 q -0.10937,-1.21875 -0.625,-1.82812 -0.78125,-0.95313 -2.03125,-0.95313 -1.125,0 -1.90625,0.76563 -0.76562,0.75 -0.84375,2.01562 z"
     fill-rule="nonzero"
     id="path181" />
  <path
     fill="#efefef"
     d="m 119.43307,319.37665 h 120 v 42.01575 h -120 z"
     fill-rule="evenodd"
     id="path183" />
  <path
     stroke="#000000"
     stroke-width="1"
     stroke-linejoin="round"
     stroke-linecap="butt"
     d="m 119.43307,319.37665 h 120 v 42.01575 h -120 z"
     fill-rule="evenodd"
     id="path185" />
  <path
     fill="#000000"
     d="m 151.75498,343.00763 1.65625,-0.14063 q 0.125,1 0.54687,1.64063 0.4375,0.64062 1.34375,1.04687 0.92188,0.39063 2.0625,0.39063 1,0 1.78125,-0.29688 0.78125,-0.29687 1.15625,-0.8125 0.375,-0.53125 0.375,-1.15625 0,-0.625 -0.375,-1.09375 -0.35937,-0.46875 -1.1875,-0.79687 -0.54687,-0.20313 -2.39062,-0.64063 -1.82813,-0.45312 -2.5625,-0.84375 -0.96875,-0.5 -1.4375,-1.23437 -0.46875,-0.75 -0.46875,-1.67188 0,-1 0.57812,-1.875 0.57813,-0.89062 1.67188,-1.34375 1.10937,-0.45312 2.45312,-0.45312 1.48438,0 2.60938,0.48437 1.14062,0.46875 1.75,1.40625 0.60937,0.92188 0.65625,2.09375 l -1.6875,0.125 q -0.14063,-1.26562 -0.9375,-1.90625 -0.78125,-0.65625 -2.3125,-0.65625 -1.60938,0 -2.34375,0.59375 -0.73438,0.59375 -0.73438,1.42188 0,0.71875 0.53125,1.17187 0.5,0.46875 2.65625,0.96875 2.15625,0.48438 2.95313,0.84375 1.17187,0.53125 1.71875,1.35938 0.5625,0.82812 0.5625,1.90625 0,1.0625 -0.60938,2.01562 -0.60937,0.9375 -1.75,1.46875 -1.14062,0.51563 -2.57812,0.51563 -1.8125,0 -3.04688,-0.53125 -1.21875,-0.53125 -1.92187,-1.59375 -0.6875,-1.0625 -0.71875,-2.40625 z m 14.61545,4.29687 -2.96875,-9.67187 h 1.70312 l 1.53125,5.57812 0.57813,2.07813 q 0.0469,-0.15625 0.5,-2 l 1.54687,-5.65625 h 1.6875 l 1.4375,5.60937 0.48438,1.84375 0.5625,-1.85937 1.65625,-5.59375 h 1.59375 l -3.03125,9.67187 h -1.70313 l -1.53125,-5.79687 -0.375,-1.64063 -1.95312,7.4375 z m 18.31669,-3.10937 1.6875,0.20312 q -0.40625,1.48438 -1.48437,2.3125 -1.07813,0.8125 -2.76563,0.8125 -2.125,0 -3.375,-1.29687 -1.23437,-1.3125 -1.23437,-3.67188 0,-2.45312 1.25,-3.79687 1.26562,-1.34375 3.26562,-1.34375 1.9375,0 3.15625,1.32812 1.23438,1.3125 1.23438,3.70313 0,0.15625 0,0.4375 h -7.21875 q 0.0937,1.59375 0.90625,2.45312 0.8125,0.84375 2.01562,0.84375 0.90625,0 1.54688,-0.46875 0.64062,-0.48437 1.01562,-1.51562 z m -5.39062,-2.65625 h 5.40625 q -0.10938,-1.21875 -0.625,-1.82813 -0.78125,-0.95312 -2.03125,-0.95312 -1.125,0 -1.90625,0.76562 -0.76563,0.75 -0.84375,2.01563 z m 15.76634,2.65625 1.6875,0.20312 q -0.40625,1.48438 -1.48437,2.3125 -1.07813,0.8125 -2.76563,0.8125 -2.125,0 -3.375,-1.29687 -1.23437,-1.3125 -1.23437,-3.67188 0,-2.45312 1.25,-3.79687 1.26562,-1.34375 3.26562,-1.34375 1.9375,0 3.15625,1.32812 1.23438,1.3125 1.23438,3.70313 0,0.15625 0,0.4375 h -7.21875 q 0.0937,1.59375 0.90625,2.45312 0.8125,0.84375 2.01562,0.84375 0.90625,0 1.54688,-0.46875 0.64062,-0.48437 1.01562,-1.51562 z m -5.39062,-2.65625 h 5.40625 q -0.10938,-1.21875 -0.625,-1.82813 -0.78125,-0.95312 -2.03125,-0.95312 -1.125,0 -1.90625,0.76562 -0.76563,0.75 -0.84375,2.01563 z m 9.14134,9.46875 v -13.375 h 1.48437 v 1.25 q 0.53125,-0.73438 1.1875,-1.09375 0.67188,-0.375 1.625,-0.375 1.23438,0 2.17188,0.64062 0.95312,0.625 1.4375,1.79688 0.48437,1.15625 0.48437,2.54687 0,1.48438 -0.53125,2.67188 -0.53125,1.1875 -1.54687,1.82812 -1.01563,0.625 -2.14063,0.625 -0.8125,0 -1.46875,-0.34375 -0.65625,-0.34375 -1.0625,-0.875 v 4.70313 z m 1.48437,-8.48438 q 0,1.85938 0.75,2.76563 0.76563,0.89062 1.82813,0.89062 1.09375,0 1.875,-0.92187 0.78125,-0.9375 0.78125,-2.875 0,-1.84375 -0.76563,-2.76563 -0.75,-0.92187 -1.8125,-0.92187 -1.04687,0 -1.85937,0.98437 -0.79688,0.96875 -0.79688,2.84375 z"
     fill-rule="nonzero"
     id="path187" />
  <path
     fill="#efefef"
     d="m 119.43307,377.16666 h 120 v 42.01575 h -120 z"
     fill-rule="evenodd"
     id="path189" />
  <path
     stroke="#000000"
     stroke-width="1"
     stroke-linejoin="round"
     stroke-linecap="butt"
     d="m 119.43307,377.16666 h 120 v 42.01575 h -120 z"
     fill-rule="evenodd"
     id="path191" />
  <path
     fill="#000000"
     d="m 154.43027,405.09454 v -13.35938 h 4.60937 q 1.54688,0 2.375,0.20313 1.14063,0.25 1.95313,0.95312 1.0625,0.89063 1.57812,2.28125 0.53125,1.39063 0.53125,3.17188 0,1.51562 -0.35937,2.70312 -0.35938,1.17188 -0.92188,1.9375 -0.54687,0.76563 -1.20312,1.21875 -0.65625,0.4375 -1.59375,0.67188 -0.9375,0.21875 -2.14063,0.21875 z m 1.76562,-1.57813 h 2.85938 q 1.3125,0 2.0625,-0.23437 0.75,-0.25 1.20312,-0.70313 0.625,-0.625 0.96875,-1.6875 0.35938,-1.0625 0.35938,-2.57812 0,-2.09375 -0.6875,-3.21875 -0.6875,-1.125 -1.67188,-1.5 -0.70312,-0.28125 -2.28125,-0.28125 h -2.8125 z m 18.12918,-1.53125 1.6875,0.20313 q -0.40625,1.48437 -1.48437,2.3125 -1.07813,0.8125 -2.76563,0.8125 -2.125,0 -3.375,-1.29688 -1.23437,-1.3125 -1.23437,-3.67187 0,-2.45313 1.25,-3.79688 1.26562,-1.34375 3.26562,-1.34375 1.9375,0 3.15625,1.32813 1.23438,1.3125 1.23438,3.70312 0,0.15625 0,0.4375 h -7.21875 q 0.0937,1.59375 0.90625,2.45313 0.8125,0.84375 2.01562,0.84375 0.90625,0 1.54688,-0.46875 0.64062,-0.48438 1.01562,-1.51563 z m -5.39062,-2.65625 h 5.40625 q -0.10938,-1.21875 -0.625,-1.82812 -0.78125,-0.95313 -2.03125,-0.95313 -1.125,0 -1.90625,0.76563 -0.76563,0.75 -0.84375,2.01562 z m 15.45386,2.21875 1.60937,0.21875 q -0.26562,1.65625 -1.35937,2.60938 -1.07813,0.9375 -2.67188,0.9375 -1.98437,0 -3.1875,-1.29688 -1.20312,-1.29687 -1.20312,-3.71875 0,-1.57812 0.51562,-2.75 0.51563,-1.17187 1.57813,-1.75 1.0625,-0.59375 2.3125,-0.59375 1.57812,0 2.57812,0.79688 1,0.79687 1.28125,2.26562 l -1.59375,0.23438 q -0.23437,-0.96875 -0.8125,-1.45313 -0.57812,-0.5 -1.39062,-0.5 -1.23438,0 -2.01563,0.89063 -0.78125,0.89062 -0.78125,2.8125 0,1.95312 0.75,2.84375 0.75,0.875 1.95313,0.875 0.96875,0 1.60937,-0.59375 0.65625,-0.59375 0.82813,-1.82813 z m 9.32812,2.35938 q -0.92187,0.76562 -1.76562,1.09375 -0.82813,0.3125 -1.79688,0.3125 -1.59375,0 -2.45312,-0.78125 -0.85938,-0.78125 -0.85938,-1.98438 0,-0.71875 0.32813,-1.29687 0.32812,-0.59375 0.84375,-0.9375 0.53125,-0.35938 1.1875,-0.54688 0.46875,-0.125 1.45312,-0.25 1.98438,-0.23437 2.92188,-0.5625 0.0156,-0.34375 0.0156,-0.42187 0,-1 -0.46875,-1.42188 -0.625,-0.54687 -1.875,-0.54687 -1.15625,0 -1.70312,0.40625 -0.54688,0.40625 -0.8125,1.42187 l -1.60938,-0.21875 q 0.21875,-1.01562 0.71875,-1.64062 0.5,-0.64063 1.45313,-0.98438 0.95312,-0.34375 2.1875,-0.34375 1.25,0 2.01562,0.29688 0.78125,0.28125 1.14063,0.73437 0.375,0.4375 0.51562,1.10938 0.0781,0.42187 0.0781,1.51562 v 2.1875 q 0,2.28125 0.10937,2.89063 0.10938,0.59375 0.40625,1.15625 h -1.70312 q -0.26563,-0.51563 -0.32813,-1.1875 z m -0.14062,-3.67188 q -0.89063,0.375 -2.67188,0.625 -1.01562,0.14063 -1.4375,0.32813 -0.42187,0.1875 -0.65625,0.53125 -0.21875,0.34375 -0.21875,0.78125 0,0.65625 0.5,1.09375 0.5,0.4375 1.45313,0.4375 0.9375,0 1.67187,-0.40625 0.75,-0.42188 1.09375,-1.14063 0.26563,-0.5625 0.26563,-1.64062 z m 4.1257,8.57813 -0.1875,-1.53125 q 0.54687,0.14062 0.9375,0.14062 0.54687,0 0.875,-0.1875 0.32812,-0.17187 0.54687,-0.5 0.15625,-0.25 0.5,-1.21875 0.0469,-0.14062 0.14063,-0.40625 l -3.67188,-9.6875 h 1.76563 l 2.01562,5.59375 q 0.39063,1.07813 0.70313,2.25 0.28125,-1.125 0.67187,-2.20312 l 2.07813,-5.64063 h 1.64062 l -3.6875,9.82813 q -0.59375,1.60937 -0.92187,2.20312 -0.4375,0.8125 -1,1.1875 -0.5625,0.375 -1.34375,0.375 -0.48438,0 -1.0625,-0.20312 z"
     fill-rule="nonzero"
     id="path193" />
  <path
     fill="#efefef"
     d="m 119.43307,434.9567 h 120 v 42.01572 h -120 z"
     fill-rule="evenodd"
     id="path195" />
  <path
     stroke="#000000"
     stroke-width="1"
     stroke-linejoin="round"
     stroke-linecap="butt"
     d="m 119.43307,434.9567 h 120 v 42.01572 h -120 z"
     fill-rule="evenodd"
     id="path197" />
  <path
     fill="#000000"
     d="m 145.61227,462.88455 v -13.35938 h 4.60937 q 1.54688,0 2.375,0.20313 1.14063,0.25 1.95313,0.95312 1.0625,0.89063 1.57812,2.28125 0.53125,1.39063 0.53125,3.17188 0,1.51562 -0.35937,2.70312 -0.35938,1.17188 -0.92188,1.9375 -0.54687,0.76563 -1.20312,1.21875 -0.65625,0.4375 -1.59375,0.67188 -0.9375,0.21875 -2.14063,0.21875 z m 1.76562,-1.57813 h 2.85938 q 1.3125,0 2.0625,-0.23437 0.75,-0.25 1.20312,-0.70313 0.625,-0.625 0.96875,-1.6875 0.35938,-1.0625 0.35938,-2.57812 0,-2.09375 -0.6875,-3.21875 -0.6875,-1.125 -1.67188,-1.5 -0.70312,-0.28125 -2.28125,-0.28125 h -2.8125 z m 17.83231,1.57813 v -1.42188 q -1.125,1.64063 -3.0625,1.64063 -0.85937,0 -1.60937,-0.32813 -0.73438,-0.32812 -1.09375,-0.82812 -0.35938,-0.5 -0.5,-1.21875 -0.10938,-0.46875 -0.10938,-1.53125 v -5.98438 h 1.64063 v 5.35938 q 0,1.28125 0.10937,1.73437 0.15625,0.64063 0.65625,1.01563 0.5,0.375 1.23438,0.375 0.73437,0 1.375,-0.375 0.65625,-0.39063 0.92187,-1.03125 0.26563,-0.65625 0.26563,-1.89063 v -5.1875 h 1.64062 v 9.67188 z m 4.03198,0 v -9.67188 h 1.46875 v 1.46875 q 0.5625,-1.03125 1.03125,-1.35937 0.48438,-0.32813 1.0625,-0.32813 0.82813,0 1.6875,0.53125 l -0.5625,1.51563 q -0.60937,-0.35938 -1.20312,-0.35938 -0.54688,0 -0.96875,0.32813 -0.42188,0.32812 -0.60938,0.89062 -0.28125,0.875 -0.28125,1.92188 v 5.0625 z m 12.54081,-1.1875 q -0.92188,0.76562 -1.76563,1.09375 -0.82812,0.3125 -1.79687,0.3125 -1.59375,0 -2.45313,-0.78125 -0.85937,-0.78125 -0.85937,-1.98438 0,-0.71875 0.32812,-1.29687 0.32813,-0.59375 0.84375,-0.9375 0.53125,-0.35938 1.1875,-0.54688 0.46875,-0.125 1.45313,-0.25 1.98437,-0.23437 2.92187,-0.5625 0.0156,-0.34375 0.0156,-0.42187 0,-1 -0.46875,-1.42188 -0.625,-0.54687 -1.875,-0.54687 -1.15625,0 -1.70313,0.40625 -0.54687,0.40625 -0.8125,1.42187 l -1.60937,-0.21875 q 0.21875,-1.01562 0.71875,-1.64062 0.5,-0.64063 1.45312,-0.98438 0.95313,-0.34375 2.1875,-0.34375 1.25,0 2.01563,0.29688 0.78125,0.28125 1.14062,0.73437 0.375,0.4375 0.51563,1.10938 0.0781,0.42187 0.0781,1.51562 v 2.1875 q 0,2.28125 0.10938,2.89063 0.10937,0.59375 0.40625,1.15625 h -1.70313 q -0.26562,-0.51563 -0.32812,-1.1875 z m -0.14063,-3.67188 q -0.89062,0.375 -2.67187,0.625 -1.01563,0.14063 -1.4375,0.32813 -0.42188,0.1875 -0.65625,0.53125 -0.21875,0.34375 -0.21875,0.78125 0,0.65625 0.5,1.09375 0.5,0.4375 1.45312,0.4375 0.9375,0 1.67188,-0.40625 0.75,-0.42188 1.09375,-1.14063 0.26562,-0.5625 0.26562,-1.64062 z m 7.78195,3.39063 0.23438,1.45312 q -0.6875,0.14063 -1.23438,0.14063 -0.89062,0 -1.39062,-0.28125 -0.48438,-0.28125 -0.6875,-0.73438 -0.20313,-0.46875 -0.20313,-1.9375 v -5.57812 h -1.20312 v -1.26563 h 1.20312 v -2.39062 l 1.625,-0.98438 v 3.375 h 1.65625 v 1.26563 h -1.65625 v 5.67187 q 0,0.6875 0.0781,0.89063 0.0937,0.20312 0.28125,0.32812 0.20312,0.10938 0.57812,0.10938 0.26563,0 0.71875,-0.0625 z m 1.6052,-10 v -1.89063 h 1.64062 v 1.89063 z m 0,11.46875 v -9.67188 h 1.64062 v 9.67188 z m 3.53543,-4.84375 q 0,-2.6875 1.48437,-3.96875 1.25,-1.07813 3.04688,-1.07813 2,0 3.26562,1.3125 1.26563,1.29688 1.26563,3.60938 0,1.85937 -0.5625,2.9375 -0.5625,1.0625 -1.64063,1.65625 -1.0625,0.59375 -2.32812,0.59375 -2.03125,0 -3.28125,-1.29688 -1.25,-1.3125 -1.25,-3.76562 z m 1.6875,0 q 0,1.85937 0.79687,2.79687 0.8125,0.92188 2.04688,0.92188 1.21875,0 2.03125,-0.92188 0.8125,-0.9375 0.8125,-2.84375 0,-1.79687 -0.8125,-2.71875 -0.8125,-0.92187 -2.03125,-0.92187 -1.23438,0 -2.04688,0.92187 -0.79687,0.90625 -0.79687,2.76563 z m 9.2976,4.84375 v -9.67188 h 1.46875 v 1.375 q 1.0625,-1.59375 3.07813,-1.59375 0.875,0 1.60937,0.3125 0.73438,0.3125 1.09375,0.82813 0.375,0.5 0.51563,1.20312 0.0937,0.45313 0.0937,1.59375 v 5.95313 h -1.64063 v -5.89063 q 0,-1 -0.20312,-1.48437 -0.1875,-0.5 -0.67188,-0.79688 -0.48437,-0.29687 -1.14062,-0.29687 -1.04688,0 -1.8125,0.67187 -0.75,0.65625 -0.75,2.51563 v 5.28125 z"
     fill-rule="nonzero"
     id="path199" />
  <path
     fill="#efefef"
     d="m 419.93963,373.81235 h 53.70077 v -16 l 32.00001,32 -32,32 v -16 h -53.70078 z"
     fill-rule="evenodd"
     id="path201" />
  <path
     stroke="#000000"
     stroke-width="1"
     stroke-linejoin="round"
     stroke-linecap="butt"
     d="m 419.93963,373.81235 h 53.70077 v -16 l 32.00001,32 -32,32 v -16 h -53.70078 z"
     fill-rule="evenodd"
     id="path203" />
  <path
     fill="#000000"
     d="m 450.37942,396.73233 v -3.20313 h -5.79688 v -1.5 l 6.09375,-8.65625 h 1.34375 v 8.65625 h 1.79688 v 1.5 h -1.79688 v 3.20313 z m 0,-4.70313 v -6.01562 l -4.1875,6.01562 z m 4.93823,0.6875 v -1.64062 h 5.03125 v 1.64062 z m 8.3533,4.01563 h -1.51562 v -13.35938 h 1.64062 v 4.76563 q 1.04688,-1.29688 2.65625,-1.29688 0.89063,0 1.6875,0.35938 0.79688,0.35937 1.3125,1.01562 0.51563,0.64063 0.79688,1.5625 0.29687,0.92188 0.29687,1.96875 0,2.48438 -1.23437,3.84375 -1.21875,1.35938 -2.95313,1.35938 -1.70312,0 -2.6875,-1.4375 z m -0.0156,-4.90625 q 0,1.73437 0.48437,2.51562 0.76563,1.26563 2.09375,1.26563 1.07813,0 1.85938,-0.9375 0.78125,-0.9375 0.78125,-2.78125 0,-1.89063 -0.75,-2.79688 -0.75,-0.90625 -1.82813,-0.90625 -1.0625,0 -1.85937,0.9375 -0.78125,0.9375 -0.78125,2.70313 z m 8.89133,-6.5625 v -1.89063 h 1.64062 v 1.89063 z m 0,11.46875 v -9.67188 h 1.64062 v 9.67188 z m 7.72296,-1.46875 0.23437,1.45312 q -0.6875,0.14063 -1.23437,0.14063 -0.89063,0 -1.39063,-0.28125 -0.48437,-0.28125 -0.6875,-0.73438 -0.20312,-0.46875 -0.20312,-1.9375 v -5.57812 h -1.20313 v -1.26563 h 1.20313 v -2.39062 l 1.625,-0.98438 v 3.375 h 1.65625 v 1.26563 h -1.65625 v 5.67187 q 0,0.6875 0.0781,0.89063 0.0937,0.20312 0.28125,0.32812 0.20313,0.10938 0.57813,0.10938 0.26562,0 0.71875,-0.0625 z"
     fill-rule="nonzero"
     id="path205" />
  <path
     fill="#cfe2f3"
     d="m 505.63777,272.78873 h 75.4331 v 148.62991 h -75.4331 z"
     fill-rule="evenodd"
     id="path207" />
  <path
     stroke="#000000"
     stroke-width="1"
     stroke-linejoin="round"
     stroke-linecap="butt"
     d="m 505.63777,272.78873 h 75.4331 v 148.62991 h -75.4331 z"
     fill-rule="evenodd"
     id="path209" />
  <path
     fill="#000000"
     d="m 523.29757,295.36496 2.625,-0.25 q 0.23438,1.3125 0.95313,1.9375 0.73437,0.60937 1.96875,0.60937 1.29687,0 1.95312,-0.54687 0.67188,-0.54688 0.67188,-1.28125 0,-0.48438 -0.28125,-0.8125 -0.28125,-0.32813 -0.96875,-0.57813 -0.48438,-0.15625 -2.17188,-0.57812 -2.15625,-0.54688 -3.03125,-1.32813 -1.23437,-1.09375 -1.23437,-2.6875 0,-1.01562 0.57812,-1.90625 0.57813,-0.89062 1.65625,-1.34375 1.09375,-0.46875 2.64063,-0.46875 2.51562,0 3.78125,1.10938 1.28125,1.09375 1.34375,2.9375 l -2.70313,0.10937 q -0.17187,-1.03125 -0.75,-1.46875 -0.5625,-0.45312 -1.70312,-0.45312 -1.17188,0 -1.84375,0.46875 -0.42188,0.3125 -0.42188,0.84375 0,0.46875 0.40625,0.79687 0.5,0.4375 2.46875,0.90625 1.96875,0.45313 2.90625,0.95313 0.95313,0.5 1.48438,1.35937 0.53125,0.85938 0.53125,2.125 0,1.15625 -0.64063,2.15625 -0.64062,1 -1.8125,1.48438 -1.15625,0.48437 -2.89062,0.48437 -2.53125,0 -3.89063,-1.17187 -1.35937,-1.17188 -1.625,-3.40625 z m 13.11542,-9.01563 h 2.6875 v 7.23438 q 0,1.71875 0.10937,2.23437 0.17188,0.82813 0.8125,1.32813 0.65625,0.48437 1.78125,0.48437 1.15625,0 1.73438,-0.46875 0.59375,-0.46875 0.70312,-1.14062 0.125,-0.6875 0.125,-2.28125 v -7.39063 h 2.6875 v 7.01563 q 0,2.40625 -0.21875,3.40625 -0.21875,0.98437 -0.8125,1.67187 -0.57812,0.6875 -1.5625,1.09375 -0.98437,0.40625 -2.5625,0.40625 -1.92187,0 -2.90625,-0.4375 -0.98437,-0.45312 -1.5625,-1.15625 -0.57812,-0.70312 -0.75,-1.48437 -0.26562,-1.14063 -0.26562,-3.39063 z m 13.45733,13.35938 v -13.35938 h 4.03125 l 2.42188,9.10938 2.39062,-9.10938 h 4.04688 v 13.35938 h -2.5 v -10.51563 l -2.65625,10.51563 h -2.59375 l -2.64063,-10.51563 v 10.51563 z"
     fill-rule="nonzero"
     id="path211" />
  <path
     fill="#cfe2f3"
     d="m 666.76901,311.54462 h 75.4331 v 71.1181 h -75.4331 z"
     fill-rule="evenodd"
     id="path213" />
  <path
     stroke="#000000"
     stroke-width="1"
     stroke-linejoin="round"
     stroke-linecap="butt"
     d="m 666.76901,311.54462 h 75.4331 v 71.1181 h -75.4331 z"
     fill-rule="evenodd"
     id="path215" />
  <path
     fill="#000000"
     d="m 683.04843,338.46463 v -13.35938 h 4.32812 q 2.45313,0 3.20313,0.20313 1.14062,0.29687 1.92187,1.3125 0.78125,1 0.78125,2.59375 0,1.23437 -0.45312,2.07812 -0.45313,0.82813 -1.14063,1.3125 -0.6875,0.46875 -1.39062,0.625 -0.96875,0.20313 -2.79688,0.20313 h -1.76562 v 5.03125 z m 2.6875,-11.09375 v 3.78125 h 1.48437 q 1.59375,0 2.125,-0.20313 0.54688,-0.20312 0.84375,-0.65625 0.3125,-0.45312 0.3125,-1.03125 0,-0.73437 -0.4375,-1.20312 -0.42187,-0.48438 -1.07812,-0.59375 -0.48438,-0.0937 -1.9375,-0.0937 z m 11.64667,11.09375 -3.1875,-13.35938 h 2.76562 l 2.01563,9.17188 2.4375,-9.17188 h 3.20312 l 2.34375,9.32813 2.04688,-9.32813 h 2.71875 l -3.25,13.35938 h -2.85938 l -2.65625,-9.98438 -2.65625,9.98438 z m 15.68683,0 v -13.35938 h 4.03125 l 2.42187,9.10938 2.39063,-9.10938 h 4.04687 v 13.35938 h -2.5 V 327.949 l -2.65625,10.51563 h -2.59375 L 715.56943,327.949 v 10.51563 z"
     fill-rule="nonzero"
     id="path217" />
  <path
     fill="#efefef"
     d="m 581.07087,331.10367 h 53.70074 v -16 l 32,32 -32,32 v -16 h -53.70074 z"
     fill-rule="evenodd"
     id="path219" />
  <path
     stroke="#000000"
     stroke-width="1"
     stroke-linejoin="round"
     stroke-linecap="butt"
     d="m 581.07087,331.10367 h 53.70074 v -16 l 32,32 -32,32 v -16 h -53.70074 z"
     fill-rule="evenodd"
     id="path221" />
  <path
     fill="#000000"
     d="m 606.26067,350.52368 1.71875,-0.14062 q 0.1875,1.25 0.875,1.89062 0.70312,0.625 1.6875,0.625 1.1875,0 2,-0.89062 0.82812,-0.89063 0.82812,-2.35938 0,-1.40625 -0.79687,-2.21875 -0.78125,-0.8125 -2.0625,-0.8125 -0.78125,0 -1.42188,0.35938 -0.64062,0.35937 -1,0.9375 l -1.54687,-0.20313 1.29687,-6.85937 h 6.64063 v 1.5625 h -5.32813 l -0.71875,3.59375 q 1.20313,-0.84375 2.51563,-0.84375 1.75,0 2.95312,1.21875 1.20313,1.20312 1.20313,3.10937 0,1.8125 -1.04688,3.14063 -1.29687,1.625 -3.51562,1.625 -1.8125,0 -2.96875,-1.01563 -1.15625,-1.03125 -1.3125,-2.71875 z m 10.18823,-0.51562 v -1.64063 h 5.03125 v 1.64063 z m 8.35333,4.01562 h -1.51562 v -13.35937 h 1.64062 v 4.76562 q 1.04688,-1.29687 2.65625,-1.29687 0.89063,0 1.6875,0.35937 0.79688,0.35938 1.3125,1.01563 0.51563,0.64062 0.79688,1.5625 0.29687,0.92187 0.29687,1.96875 0,2.48437 -1.23437,3.84375 -1.21875,1.35937 -2.95313,1.35937 -1.70312,0 -2.6875,-1.4375 z m -0.0156,-4.90625 q 0,1.73438 0.48437,2.51563 0.76563,1.26562 2.09375,1.26562 1.07813,0 1.85938,-0.9375 0.78125,-0.9375 0.78125,-2.78125 0,-1.89062 -0.75,-2.79687 -0.75,-0.90625 -1.82813,-0.90625 -1.0625,0 -1.85937,0.9375 -0.78125,0.9375 -0.78125,2.70312 z m 8.8913,-6.5625 v -1.89062 h 1.64062 v 1.89062 z m 0,11.46875 v -9.67187 h 1.64062 v 9.67187 z m 7.72296,-1.46875 0.23437,1.45313 q -0.6875,0.14062 -1.23437,0.14062 -0.89063,0 -1.39063,-0.28125 -0.48437,-0.28125 -0.6875,-0.73437 -0.20312,-0.46875 -0.20312,-1.9375 v -5.57813 h -1.20313 v -1.26562 h 1.20313 v -2.39063 l 1.625,-0.98437 v 3.375 h 1.65625 v 1.26562 h -1.65625 v 5.67188 q 0,0.6875 0.0781,0.89062 0.0937,0.20313 0.28125,0.32813 0.20313,0.10937 0.57813,0.10937 0.26562,0 0.71875,-0.0625 z"
     fill-rule="nonzero"
     id="path223" />
  <path
     fill="#000000"
     fill-opacity="0"
     d="m 742.20211,347.10367 h 53.88977"
     fill-rule="evenodd"
     id="path225" />
  <path
     stroke="#000000"
     stroke-width="3"
     stroke-linejoin="round"
     stroke-linecap="butt"
     d="m 742.20211,347.10367 h 35.88977"
     fill-rule="evenodd"
     id="path227" />
  <path
     fill="#000000"
     stroke="#000000"
     stroke-width="3"
     stroke-linecap="butt"
     d="m 778.09187,352.05887 13.61426,-4.9552 -13.61426,-4.9552 z"
     fill-rule="evenodd"
     id="path229" />
  <path
     fill="#000000"
     fill-opacity="0"
     d="m 742.20474,295.1719 h 53.88977 v 42.01575 h -53.88977 z"
     fill-rule="evenodd"
     id="path231" />
  <path
     fill="#000000"
     d="m 755.02067,315.59192 q 0,-3.32812 1.78125,-5.20312 1.78125,-1.89063 4.60937,-1.89063 1.84375,0 3.32813,0.89063 1.48437,0.875 2.26562,2.46875 0.78125,1.57812 0.78125,3.57812 0,2.03125 -0.82812,3.64063 -0.8125,1.59375 -2.3125,2.42187 -1.5,0.82813 -3.25,0.82813 -1.875,0 -3.35938,-0.90625 -1.48437,-0.92188 -2.25,-2.5 -0.76562,-1.57813 -0.76562,-3.32813 z m 1.8125,0.0156 q 0,2.42187 1.29687,3.8125 1.29688,1.39062 3.26563,1.39062 2,0 3.28125,-1.40625 1.28125,-1.40625 1.28125,-3.98437 0,-1.625 -0.54688,-2.84375 -0.54687,-1.21875 -1.60937,-1.875 -1.0625,-0.67188 -2.375,-0.67188 -1.89063,0 -3.25,1.29688 -1.34375,1.28125 -1.34375,4.28125 z m 19.35516,6.48437 v -1.42187 q -1.125,1.64062 -3.0625,1.64062 -0.85937,0 -1.60937,-0.32812 -0.73438,-0.32813 -1.09375,-0.82813 -0.35938,-0.5 -0.5,-1.21875 -0.10938,-0.46875 -0.10938,-1.53125 v -5.98437 h 1.64063 v 5.35937 q 0,1.28125 0.10937,1.73438 0.15625,0.64062 0.65625,1.01562 0.5,0.375 1.23438,0.375 0.73437,0 1.375,-0.375 0.65625,-0.39062 0.92187,-1.03125 0.26563,-0.65625 0.26563,-1.89062 v -5.1875 h 1.64062 v 9.67187 z m 7.62574,-1.46875 0.23437,1.45313 q -0.6875,0.14062 -1.23437,0.14062 -0.89063,0 -1.39063,-0.28125 -0.48437,-0.28125 -0.6875,-0.73437 -0.20312,-0.46875 -0.20312,-1.9375 v -5.57813 h -1.20313 v -1.26562 h 1.20313 v -2.39063 l 1.625,-0.98437 v 3.375 h 1.65625 v 1.26562 h -1.65625 v 5.67188 q 0,0.6875 0.0781,0.89062 0.0937,0.20313 0.28125,0.32813 0.20313,0.10937 0.57813,0.10937 0.26562,0 0.71875,-0.0625 z"
     fill-rule="nonzero"
     id="path233" />
</svg>
